<svg xmlns="http://www.w3.org/2000/svg" width="44" height="44" viewBox="0 0 44 44">
  <g id="Group_2868" data-name="Group 2868" transform="translate(-336 -109)">
    <rect id="Rectangle_11" data-name="Rectangle 11" width="44" height="44" rx="4" transform="translate(336 109)" fill="#22c7b8"/>
    <path id="fi-rr-plus-small" d="M27.043,15.565H19.391V7.913A1.913,1.913,0,0,0,17.478,6h0a1.913,1.913,0,0,0-1.913,1.913v7.652H7.913A1.913,1.913,0,0,0,6,17.478H6a1.913,1.913,0,0,0,1.913,1.913h7.652v7.652a1.913,1.913,0,0,0,1.913,1.913h0a1.913,1.913,0,0,0,1.913-1.913V19.391h7.652a1.913,1.913,0,0,0,1.913-1.913h0A1.913,1.913,0,0,0,27.043,15.565Z" transform="translate(341.478 114.478)" fill="#fff"/>
  </g>
</svg>
