<svg xmlns="http://www.w3.org/2000/svg" width="25.185" height="33.58" viewBox="0 0 25.185 33.58">
  <path id="fi-rr-treatment" d="M11.395,12.592a1.4,1.4,0,0,1,1.4-1.4h1.4v-1.4a1.4,1.4,0,0,1,2.8,0v1.4h1.4a1.4,1.4,0,0,1,0,2.8h-1.4v1.4a1.4,1.4,0,1,1-2.8,0v-1.4h-1.4A1.4,1.4,0,0,1,11.395,12.592Zm9.794,7H10a1.4,1.4,0,0,0,0,2.8H21.189a1.4,1.4,0,1,0,0-2.8Zm-5.6,5.6H10a1.4,1.4,0,1,0,0,2.8h5.6a1.4,1.4,0,1,0,0-2.8ZM28.185,9.794v16.79a7,7,0,0,1-7,7H10a7,7,0,0,1-7-7V9.794a7,7,0,0,1,7-7h.239A4.206,4.206,0,0,1,14.193,0h2.8A4.206,4.206,0,0,1,20.95,2.8h.239a7,7,0,0,1,7,7Zm-2.8,0a4.2,4.2,0,0,0-4.2-4.2h-1.4a1.4,1.4,0,0,1-1.4-1.4,1.4,1.4,0,0,0-1.4-1.4h-2.8a1.4,1.4,0,0,0-1.4,1.4,1.4,1.4,0,0,1-1.4,1.4H10a4.2,4.2,0,0,0-4.2,4.2v16.79a4.2,4.2,0,0,0,4.2,4.2H21.189a4.2,4.2,0,0,0,4.2-4.2Z" transform="translate(-3)" fill="#22c7b8"/>
</svg>
