<svg xmlns="http://www.w3.org/2000/svg" width="36.609" height="33.58" viewBox="0 0 36.609 33.58">
  <path id="fi-rr-dashboard" d="M36.45,16.927A18.3,18.3,0,0,0,0,19.311,18.115,18.115,0,0,0,5.733,32.6a7.382,7.382,0,0,0,5.115,1.964h14.9A7.616,7.616,0,0,0,31.1,32.382,18.216,18.216,0,0,0,36.45,16.927ZM28.964,30.2a4.575,4.575,0,0,1-3.22,1.316h-14.9a4.365,4.365,0,0,1-3.021-1.13A15.1,15.1,0,0,1,3.05,19.311,15.273,15.273,0,0,1,8.141,7.938,15.07,15.07,0,0,1,18.28,4.059a16.094,16.094,0,0,1,1.79.1A15.242,15.242,0,0,1,28.964,30.2Zm-17.057-4.35a1.526,1.526,0,1,1-2.135,2.181A12.2,12.2,0,0,1,20.045,7.233a1.525,1.525,0,0,1,1.292,1.728,1.508,1.508,0,0,1-1.728,1.293,9.151,9.151,0,0,0-7.7,15.591Zm18.472-8.278a12.311,12.311,0,0,1,.124,1.743,12.1,12.1,0,0,1-3.672,8.718,1.527,1.527,0,0,1-2.135-2.184A9.12,9.12,0,0,0,27.355,18a1.526,1.526,0,1,1,3.021-.436Zm-9.14.962a3.1,3.1,0,1,1-2.157-2.157l5.766-5.766a1.525,1.525,0,1,1,2.157,2.157Z" transform="translate(0 -0.982)" fill="#b5b5b5"/>
</svg>
