<svg xmlns="http://www.w3.org/2000/svg" width="19" height="19" viewBox="0 0 19 19">
  <g id="Group_4465" data-name="Group 4465" transform="translate(-324 -293)">
    <rect id="Rectangle_13" data-name="Rectangle 13" width="19" height="19" rx="9.5" transform="translate(324 293)" fill="#f17a12"/>
    <path id="fi-rr-time-quarter-to" d="M14.322,7.161A7.161,7.161,0,1,1,0,7.161a.6.6,0,0,1,1.194,0A5.968,5.968,0,1,0,7.161,1.194.6.6,0,1,1,7.161,0,7.169,7.169,0,0,1,14.322,7.161Zm-8.189-.6H4.774a.6.6,0,1,0,0,1.194H6.133A1.19,1.19,0,1,0,7.758,6.133V4.177a.6.6,0,0,0-1.194,0V6.133a1.194,1.194,0,0,0-.431.431ZM1.09,5.242a.6.6,0,1,0-.6-.6A.6.6,0,0,0,1.09,5.242ZM2.519,3.107a.6.6,0,1,0-.6-.6A.6.6,0,0,0,2.519,3.107ZM4.642,1.7a.6.6,0,1,0-.6-.6A.6.6,0,0,0,4.642,1.7Z" transform="translate(326.339 295.339)" fill="#fff"/>
  </g>
</svg>
